<svg width="34" height="30" viewBox="0 0 34 30" fill="none" xmlns="http://www.w3.org/2000/svg">
<path d="M25.1611 1.5C29.2018 1.5 32.5 4.80778 32.5 8.91309V9.08691C32.5 12.2963 30.4724 16.0079 27.5869 19.542C24.7521 23.0139 21.3114 26.0479 18.9512 27.8643C18.409 28.2787 17.7257 28.5 17 28.5C16.2644 28.5 15.5829 28.2796 15.0596 27.8721L15.0527 27.8672L14.1201 27.1299C11.8412 25.2848 8.89474 22.5814 6.41309 19.542C3.52761 16.0079 1.5 12.2963 1.5 9.08691V8.91309C1.5 4.80778 4.79824 1.5 8.83887 1.5C11.1887 1.50006 13.4046 2.63824 14.7842 4.56348L14.7861 4.56543L15.7822 5.95117L17 7.64648L18.2178 5.95117L19.2139 4.56543L19.2158 4.56348C20.5954 2.63824 22.8113 1.50006 25.1611 1.5Z" stroke="#9F2042" stroke-width="3"/>
</svg>
