<svg width="32" height="32" viewBox="0 0 32 32" fill="none" xmlns="http://www.w3.org/2000/svg">
<path d="M24.9375 24.0125C23.5562 21.6125 20.9625 20 18 20H14C11.0375 20 8.44375 21.6125 7.0625 24.0125C9.2625 26.4625 12.45 28 16 28C19.55 28 22.7375 26.4563 24.9375 24.0125ZM0 16C0 7.1625 7.1625 0 16 0C24.8375 0 32 7.1625 32 16C32 24.8375 24.8375 32 16 32C7.1625 32 0 24.8375 0 16ZM16 17C18.4875 17 20.5 14.9875 20.5 12.5C20.5 10.0125 18.4875 8 16 8C13.5125 8 11.5 10.0125 11.5 12.5C11.5 14.9875 13.5125 17 16 17Z" fill="#7B0D1E"/>
</svg>
